# AST/ASF file generated using VICON BodyLanguage
# -----------------------------------------------
:version 1.10
:name VICON
:units
  mass 1.0
  length 0.45
  angle deg
:documentation
   .ast/.asf automatically generated from VICON data using
   VICON BodyBuilder and BodyLanguage model FoxedUp or BRILLIANT.MOD
:root
   order TX TY TZ RX RY RZ
   axis XYZ
   position 0 0 0  
   orientation 0 0 0 
:bonedata
  begin
     id 1 
     name lhipjoint
     direction 0.623529 -0.717805 0.309788 
     length 2.23224 
     axis 0 0 0  XYZ
  end
  begin
     id 2 
     name lfemur
     direction 0.34202 -0.939693 0  
     length 7.11402  
     axis 0 0 20  XYZ
    dof rx ry rz
    limits (-160.0 20.0)
           (-70.0 70.0)
           (-60.0 70.0)
  end
  begin
     id 3 
     name ltibia
     direction 0.34202 -0.939693 0   
     length 6.78496   
     axis 0 0 20   XYZ
    dof rx
    limits (-10.0 170.0)
  end
  begin
     id 4 
     name lfoot
     direction 0.125078 -0.343648 0.930732   
     length 1.84054   
     axis -90 7.62852e-016 20   XYZ
    dof rx rz
    limits (-45.0 90.0)
           (-70.0 20.0)
  end
  begin
     id 5 
     name ltoes
     direction 1.53565e-011 -4.21893e-011 1   
     length 0.916474   
     axis -90 7.62852e-016 20   XYZ
    dof rx
    limits (-90.0 20.0)
  end
  begin
     id 6 
     name rhipjoint
     direction -0.564688 -0.757748 0.327026   
     length 2.11457  
     axis 0 0 0  XYZ 
  end
  begin
     id 7 
     name rfemur
     direction -0.34202 -0.939693 0   
     length 7.14609   
     axis 0 0 -20   XYZ
    dof rx ry rz
    limits (-160.0 20.0)
           (-70.0 70.0)
           (-70.0 60.0)
  end
  begin
     id 8 
     name rtibia
     direction -0.34202 -0.939693 0   
     length 6.78101   
     axis 0 0 -20   XYZ
    dof rx
    limits (-10.0 170.0)
 end
 begin
     id 9 
     name rfoot
     direction -0.0992671 -0.272734 0.956955   
     length 1.96168  
     axis -90 -7.62852e-016 -20   XYZ
    dof rx rz
    limits (-45.0 90.0)
           (-20.0 70.0)
  end
  begin
     id 10 
     name rtoes
     direction -1.5356e-011 -4.21891e-011 1   
     length 0.982933   
     axis -90 -7.62852e-016 -20   XYZ
    dof rx
    limits (-90.0 20.0)
  end
  begin
     id 11 
     name lowerback
     direction -0.00596953 0.998668 0.0512524   
     length 1.87557   
     axis 0 0 0   XYZ
    dof rx ry rz
    limits (-20.0 45.0)
           (-30.0 30.0)
           (-30.0 30.0)
  end
  begin
     id 12 
     name upperback
     direction 0.00584879 0.999652 0.0257308   
     length 1.87883   
     axis 0 0 0   XYZ
    dof rx ry rz
    limits (-20.0 45.0)
           (-30.0 30.0)
           (-30.0 30.0)
  end
  begin
     id 13 
     name thorax
     direction 0.010104 0.999947 0.00178881   
     length 1.87779   
     axis 0 0 0   XYZ
    dof rx ry rz
    limits (-20.0 45.0)
           (-30.0 30.0)
           (-30.0 30.0)
  end
  begin
     id 14 
     name lowerneck
     direction 0.0120771 0.995934 -0.0892773   
     length 1.40897   
     axis 0 0 0   XYZ
    dof rx ry rz
    limits (-20.0 45.0)
           (-30.0 30.0)
           (-30.0 30.0)
  end
  begin
     id 15 
     name upperneck
     direction -0.030568 0.999465 -0.0116366   
     length 1.38661   
     axis 0 0 0   XYZ
    dof rx ry rz
    limits (-20.0 45.0)
           (-30.0 30.0)
           (-30.0 30.0)
  end
  begin
     id 16
     name head
     direction -0.0170715 0.999854 -0.00104426  
     length 1.47052  
     axis 0 0 0   XYZ
    dof rx ry rz
    limits (-20.0 45.0)
           (-30.0 30.0)
           (-30.0 30.0)
  end
  begin
     id 17 
     name lclavicle
     direction 0.977763 0.206143 0.038532  
     length 3.02424  
     axis 0 0 0   XYZ
    dof ry rz
    limits (-20.0 10.0)
           (0.0 20.0)
  end
  begin
     id 18 
     name lhumerus
     direction 1 -4.48965e-011 -2.62654e-027   
     length 4.68382   
     axis 180 -30 -90   XYZ
    dof rx ry rz
    limits (-60.0 90.0)
           (-90.0 90.0)
           (-90.0 90.0)
  end
  begin
     id 19
     name lradius
     direction 1 -4.48973e-011 -1.54954e-027   
     length 2.98124   
     axis 180 -30 -90   XYZ
    dof rx
    limits (-10.0 170.0)
  end
  begin
     id 20
     name lwrist
     direction 1 -4.48959e-011 7.20928e-028   
     length 1.49062   
     axis -5.52449e-016 90 90   XYZ
    dof ry
    limits (-180.0 0.0)
 end
  begin
     id 21 
     name lhand
     direction 1 -4.48971e-011 1.44186e-027   
     length 0.707595   
     axis -9.20027e-016 90 90   XYZ
    dof rx rz
    limits (-90.0 90.0)
           (-45.0 45.0)
  end
  begin
     id 22 
     name lfingers
     direction 1 -4.48985e-011 2.88371e-027   
     length 0.570481   
     axis -1.84005e-015 90 90   XYZ
    dof rx
    limits (0.0 90.0)
  end
  begin
     id 23
     name lthumb
     direction 0.707107 -6.34929e-011 0.707107   
     length 0.819101   
     axis -90 45 2.85299e-015   XYZ
    dof rx rz
    limits (-45.0 45.0)
           (-45.0 45.0)
  end
  begin
     id 24 
     name rclavicle
     direction -0.958661 0.284411 -0.00895327   
     length 3.11921  
     axis 0 0 0   XYZ 
    dof ry rz
    limits (-10.0 20.0)
           (-20.0 0.0)
  end
  begin
     id 25 
     name rhumerus
     direction -1 -4.48963e-011 -4.22193e-027  
     length 4.75876   
     axis 180 30 90   XYZ
    dof rx ry rz
    limits (-90.0 60.0)
           (-90.0 90.0)
           (-90.0 90.0)
  end
  begin
     id 26 
     name rradius
     direction -1 -4.48968e-011 -1.07616e-027   
     length 2.93293   
     axis 180 30 90   XYZ
    dof rx
    limits (-10.0 170.0)
  end
  begin
     id 27 
     name rwrist
     direction -1 -4.48965e-011 7.20928e-028   
     length 1.46647   
     axis -5.52449e-016 -90 -90   XYZ
    dof ry
    limits (-180.0 0.0)
  end
  begin
     id 28
     name rhand
     direction -1 -4.48971e-011 1.44186e-027   
     length 0.831748   
     axis -9.20027e-016 -90 -90   XYZ
    dof rx rz
    limits (-90.0 90.0)
           (-45.0 45.0)
  end
  begin
     id 29
     name rfingers
     direction -1 -4.48961e-011 2.88371e-027   
     length 0.670577   
     axis -1.84005e-015 -90 -90   XYZ
    dof rx
    limits (0.0 90.0)
  end
  begin
     id 30
     name rthumb
     direction -0.707107 -6.34929e-011 0.707107   
     length 0.962818   
     axis -90 -45 -2.85299e-015   XYZ
    dof rx rz
    limits (-45.0 45.0)
           (-45.0 45.0)
  end
:hierarchy
  begin
    root lhipjoint rhipjoint lowerback
    lhipjoint lfemur
    lfemur ltibia
    ltibia lfoot
    lfoot ltoes
    rhipjoint rfemur
    rfemur rtibia
    rtibia rfoot
    rfoot rtoes
    lowerback upperback
    upperback thorax
    thorax lowerneck lclavicle rclavicle
    lowerneck upperneck
    upperneck head
    lclavicle lhumerus
    lhumerus lradius
    lradius lwrist
    lwrist lhand lthumb
    lhand lfingers
    rclavicle rhumerus
    rhumerus rradius
    rradius rwrist
    rwrist rhand rthumb
    rhand rfingers
  end

#!OML:ASF E:\id_vita\Project 1\Capture day 1\Session 1\Female.ASF
:FULLY-SPECIFIED
:DEGREES
18
root -28.8881 16.0778 -0.0969689 -1.18124 86.7018 -22.0819
lowerback -10.7156 -0.44526 -4.75545
upperback -1.89945 -0.00374281 0.356484
thorax 4.02597 -0.0369159 3.05486
lowerneck -1.05311 -0.708972 -4.66292
upperneck 12.9916 -1.12606 5.4785
head 4.09839 -0.41425 2.41182
rclavicle -5.36719e-015 -2.0276e-014
rhumerus -43.0574 -26.1019 -71.2566
rradius 22.9901
rwrist 16.3914
rhand -14.514 7.04801
rfingers 7.12502
rthumb 11.6334 -22.609
lclavicle -5.36719e-015 -2.0276e-014
lhumerus -65.3239 45.6105 37.4823
lradius 14.5326
lwrist -55.8388
lhand -5.95919 25.2736
lfingers 7.12502
lthumb 19.8716 54.2777
rfemur -29.8757 7.90186 17.0982
rtibia 36.312
rfoot -13.5847 -20.4334
rtoes -15.8826
lfemur -29.46 -10.0391 -21.4995
ltibia 33.9059
lfoot -26.708 10.7191
ltoes 8.24547
19
root -28.8958 16.076 -0.0947962 6.10636 87.5216 -15.712
lowerback -11.0754 -0.704717 -5.42648
upperback -2.27809 -0.247886 0.417169
thorax 3.85243 -0.147257 3.46404
lowerneck -1.26011 -0.83388 -4.62203
upperneck 13.436 -1.24985 5.11023
head 4.27389 -0.48363 2.28935
rclavicle -5.86415e-015 7.95139e-015
rhumerus -43.3827 -26.4615 -70.5811
rradius 22.9843
rwrist 16.6455
rhand -14.4401 7.21916
rfingers 7.12502
rthumb 11.7047 -22.4339
lclavicle -5.86415e-015 7.95139e-015
lhumerus -66.6614 46.3383 35.7824
lradius 14.2696
lwrist -58.3021
lhand -6.09653 25.1851
lfingers 7.12502
lthumb 19.7396 54.2028
rfemur -31.2182 7.47324 16.567
rtibia 37.0975
rfoot -12.7961 -20.862
rtoes -16.8193
lfemur -30.5315 -9.86158 -21.8914
ltibia 33.8651
lfoot -26.8272 9.57334
ltoes 8.57191
20
root -28.8427 16.0668 -0.107818 1.93906 86.6026 -19.1585
lowerback -10.8362 -0.321502 -4.9616
upperback -1.79032 0.19269 0.334452
thorax 4.18915 0.0506642 3.177
lowerneck -1.96136 -0.801372 -4.32329
upperneck 13.529 -1.19293 4.94073
head 4.41492 -0.445687 2.1887
rclavicle -1.42131e-014 -1.11319e-014
rhumerus -42.9792 -26.9168 -70.6679
rradius 22.7798
rwrist 16.8773
rhand -14.4005 7.21923
rfingers 7.12502
rthumb 11.7429 -22.4316
lclavicle -1.42131e-014 -1.11319e-014
lhumerus -68.3703 47.8156 32.866
lradius 13.9378
lwrist -60.9359
lhand -6.23708 24.716
lfingers 7.12502
lthumb 19.6044 53.7475
rfemur -30.8278 8.3431 16.8401
rtibia 37.936
rfoot -12.4349 -20.9787
rtoes -17.0965
lfemur -29.4316 -9.60313 -21.8093
ltibia 33.8067
lfoot -27.0041 10.4094
ltoes 8.59645
21
root -28.8008 16.0616 -0.12234 6.96053 86.5034 -14.0753
lowerback -11.2695 -0.356924 -4.77825
upperback -1.56437 0.170772 -0.0425712
thorax 4.67094 0.0282136 2.67826
lowerneck -1.70957 -0.689809 -3.91503
upperneck 13.1399 -1.06934 4.92787
head 4.24587 -0.373196 2.11989
rclavicle 9.54166e-015 3.97569e-016
rhumerus -42.7627 -27.5272 -70.8278
rradius 22.4618
rwrist 17.2226
rhand -14.2207 7.28355
rfingers 7.12502
rthumb 11.9163 -22.3573
lclavicle 9.54166e-015 3.97569e-016
lhumerus -69.4251 48.6513 30.7135
lradius 13.753
lwrist -62.3778
lhand -6.21486 24.6386
lfingers 7.12502
lthumb 19.6258 53.668
rfemur -31.1479 8.32448 16.489
rtibia 38.9192
rfoot -12.6413 -20.8909
rtoes -15.4707
lfemur -29.1383 -9.75763 -22.2417
ltibia 33.7308
lfoot -26.9279 10.6428
ltoes 9.15831
22
root -28.7683 16.0558 -0.134455 6.95708 86.5061 -14.0714
lowerback -11.0092 -0.428602 -4.81373
upperback -1.75132 0.059465 0.0329327
thorax 4.33901 -0.0151902 2.75935
lowerneck -1.52323 -0.603393 -3.93757
upperneck 13.1651 -0.952243 4.91763
head 4.21696 -0.317692 2.12584
rclavicle 2.78299e-015 2.14687e-014
rhumerus -43.1634 -28.1148 -70.0193
rradius 22.1708
rwrist 18.2041
rhand -14.2447 7.24285
rfingers 7.12502
rthumb 11.8931 -22.3994
lclavicle 2.78299e-015 2.14687e-014
lhumerus -70.8642 48.9927 29.0116
lradius 13.6049
lwrist -63.778
lhand -6.19001 25.0416
lfingers 7.12502
lthumb 19.6497 54.0685
rfemur -31.5445 8.19986 16.5209
rtibia 39.9086
rfoot -12.8731 -20.588
rtoes -13.3257
lfemur -28.9613 -9.73093 -22.3326
ltibia 33.6376
lfoot -26.9424 10.6006
ltoes 9.22247
23
root -28.7307 16.0522 -0.146827 8.04147 86.4315 -13.1393
lowerback -11.0931 -0.400295 -4.8703
upperback -1.84906 0.106628 0.0801565
thorax 4.27889 0.0116057 2.84787
lowerneck -1.75273 -0.605511 -3.99781
upperneck 13.4405 -0.945263 4.89025
head 4.3392 -0.313019 2.12953
rclavicle 9.93923e-016 -2.78299e-015
rhumerus -43.3163 -27.7158 -70.052
rradius 22.3871
rwrist 17.8313
rhand -14.3642 6.90142
rfingers 7.12502
rthumb 11.7779 -22.7474
lclavicle 9.93923e-016 -2.78299e-015
lhumerus -72.9608 49.8914 26.1905
lradius 13.3077
lwrist -66.2691
lhand -5.99388 24.9249
lfingers 7.12502
lthumb 19.8382 53.9324
rfemur -32.1771 8.03599 16.4804
rtibia 41.0479
rfoot -13.1393 -20.244
rtoes -12.3463
lfemur -28.912 -9.77537 -22.4528
ltibia 33.5209
lfoot -27.0346 10.6617
ltoes 9.55614
24
root -28.6987 16.0482 -0.155243 10.2787 86.3417 -11.0594
lowerback -11.1726 -0.322308 -4.99917
upperback -1.93471 0.23302 0.040979
thorax 4.22203 0.0770921 2.89823
lowerneck -1.83884 -0.626202 -3.97621
upperneck 13.6639 -0.974598 4.91184
head 4.42301 -0.320677 2.13309
rclavicle 4.47266e-015 4.77083e-015
rhumerus -43.5683 -28.063 -69.6885
rradius 22.3805
rwrist 17.8561
rhand -14.2873 6.92292
rfingers 7.12502
rthumb 11.8521 -22.7217
lclavicle 4.47266e-015 4.77083e-015
lhumerus -75.4238 50.8955 22.7043
lradius 12.9592
lwrist -69.092
lhand -5.89939 24.3453
lfingers 7.12502
lthumb 19.9291 53.3434
rfemur -32.8891 7.99597 16.3864
rtibia 42.2016
rfoot -12.7638 -20.2107
rtoes -12.7629
lfemur -28.9337 -9.82148 -22.6462
ltibia 33.4937
lfoot -27.0286 10.8021
ltoes 9.83175
25
root -28.6704 16.0422 -0.159672 10.5177 86.2767 -10.7304
lowerback -11.0378 -0.2839 -4.96528
upperback -1.95724 0.27458 -0.02142
thorax 4.12067 0.101475 2.81867
lowerneck -1.67 -0.531225 -4.00671
upperneck 13.707 -0.866906 5.09432
head 4.40279 -0.258945 2.19988
rclavicle -1.26228e-014 4.77083e-015
rhumerus -43.8186 -28.3782 -69.422
rradius 22.2492
rwrist 17.9837
rhand -14.2352 7.15427
rfingers 7.12502
rthumb 11.9023 -22.4874
lclavicle -1.26228e-014 4.77083e-015
lhumerus -77.3436 51.5701 19.9091
lradius 12.68
lwrist -71.0536
lhand -6.2097 23.9143
lfingers 7.12502
lthumb 19.6308 52.9432
rfemur -33.3631 7.9958 16.481
rtibia 43.3592
rfoot -12.0923 -20.1178
rtoes -11.4744
lfemur -28.7006 -9.80524 -22.7455
ltibia 33.467
lfoot -26.9622 10.8742
ltoes 9.81341
26
root -28.64 16.0387 -0.167679 7.83614 86.2044 -13.4363
lowerback -11.0678 -0.24636 -4.69876
upperback -1.96064 0.293936 -0.0100936
thorax 4.1335 0.114088 2.68314
lowerneck -1.55362 -0.455548 -3.93342
upperneck 13.6066 -0.766812 5.06643
head 4.34763 -0.209852 2.18251
rclavicle -1.41137e-014 2.10712e-014
rhumerus -43.9994 -28.6206 -69.1816
rradius 22.0988
rwrist 18.3009
rhand -14.2912 7.51787
rfingers 7.12502
rthumb 11.8484 -22.1269
lclavicle -1.41137e-014 2.10712e-014
lhumerus -78.2742 52.037 18.5449
lradius 12.5662
lwrist -72.0197
lhand -5.97023 24.2345
lfingers 7.12502
lthumb 19.861 53.2397
rfemur -33.95 7.97762 16.7619
rtibia 44.5012
rfoot -11.6064 -19.7322
rtoes -7.4769
lfemur -28.609 -9.85599 -22.5808
ltibia 33.4889
lfoot -27.0191 10.9509
ltoes 10.1277
27
root -28.6004 16.0362 -0.177684 9.29922 86.1493 -12.062
lowerback -11.2441 -0.268749 -4.72176
upperback -1.95249 0.279718 -0.0463081
thorax 4.24096 0.104718 2.65746
lowerneck -1.70213 -0.419495 -3.7257
upperneck 13.7405 -0.707335 4.88594
head 4.41 -0.177137 2.09582
rclavicle -4.27387e-015 2.0276e-014
rhumerus -44.0925 -28.8907 -68.9486
rradius 21.9656
rwrist 18.6742
rhand -14.3535 7.69105
rfingers 7.12502
rthumb 11.7883 -21.9572
lclavicle -4.27387e-015 2.0276e-014
lhumerus -79.2907 52.5661 17.2179
lradius 12.5386
lwrist -72.9768
lhand -5.6189 24.7052
lfingers 7.12502
lthumb 20.1987 53.6751
rfemur -34.5979 7.82297 16.7621
rtibia 45.665
rfoot -11.0628 -19.4957
rtoes -4.1529
lfemur -28.5053 -9.93527 -22.7315
ltibia 33.4684
lfoot -27.1609 10.9919
ltoes 10.615
